<svg xmlns="http://www.w3.org/2000/svg" viewBox="0 0 136.05 193.23"><defs><style>.cls-1{fill:#ff7c24;}.cls-2{fill:#fff;}</style></defs><title>logo-icon</title><g id="Layer_2" data-name="Layer 2"><g id="Layer_1-2" data-name="Layer 1"><path class="cls-1" d="M44.81,139.51A395.41,395.41,0,0,1,0,123.33V68A68.32,68.32,0,0,1,42.76,4.84c-.18,24.23-1.9,65.71-11,85.52a10.66,10.66,0,0,0-1.21,10.06c1.62,3.7,5.38,6.19,11.46,7.56-1.63,3.73-3,8.73-1.75,13.56a14,14,0,0,0,4.16,6.91,9.51,9.51,0,0,0-1.49,3.78A9.85,9.85,0,0,0,44.81,139.51Z"/><path class="cls-1" d="M136.05,68v57.2a67.54,67.54,0,0,1-5.43,26.63c-30.28,11.52-48.49,12.64-58.46,11.53-5.75-.64-10.52-2.13-14.18-4.43-2.68-1.69-4.84-5.07-3.78-7.4.19-.42.37-.84.54-1.29a99.53,99.53,0,0,0,20.43,2.54h0c6.46,0,11.59-1.08,15.26-3.2s6-5.07,6.8-8.64c1.22-5.7-2.17-10.6-2.57-11.15-4.55-6.17-.72-9.8-.24-10.21l.23-.21a9.22,9.22,0,0,0,2.94-7.19,9.7,9.7,0,0,0-1.38-4.3c2.59-4.16,2.06-10.68-1.53-18.56a.13.13,0,0,1,.08-.06l6.37-.89c4.43-.74,6.54-3.09,7.54-4.93,2.49-4.59.36-10-.09-11v0C98.21,49.86,95.7,24.07,95.5,5.78A67.8,67.8,0,0,1,136.05,68Z"/><path class="cls-1" d="M124.91,162.49A68,68,0,0,1,.38,132.15c17.78,7.35,33.4,12.8,46.49,16.22C44,155,48.2,162.23,53.72,165.7c4.7,3,10.61,4.84,17.56,5.62C85.36,172.88,103.39,169.91,124.91,162.49Z"/><path class="cls-2" d="M101.3,75.72C89.71,50.5,87.33,22.32,87.42,2.8a68.48,68.48,0,0,0-36.63-.59c0,25.33-1.68,70-11.93,91.85l-.26.49-.17.23c-.24.35-.92,1.62-.55,2.45.13.28,1.51,2.79,10.78,3.71l6.86.69-4,5.61c0,.07-4.88,7-3.5,12.3.52,2,2,3.58,4.52,4.78l7.29,3.47-7.18,3.69c-.58.31-1.7,1.25-1.81,2-.08.59.47,1.57,1.49,2.63a10.08,10.08,0,0,1,3.48,6.18c19.73,4.33,27.66,2.12,30.64.39,1.7-1,2.71-2.11,3-3.36.5-2.29-1.21-4.8-1.22-4.82-7.12-9.66-2.56-17.83.89-20.85.22-.23.55-.64.53-.94a3.84,3.84,0,0,0-1.31-2l-4.79-3.87L89,104.06c1.43-.73,1.14-5.45-1.56-11.33a8,8,0,0,1,.25-7.23,8.06,8.06,0,0,1,6-4.14l6.26-.88a2.34,2.34,0,0,0,1.73-.84C102.19,78.66,101.63,76.48,101.3,75.72Zm-33-27.24a9.71,9.71,0,1,1,9.7-9.7A9.71,9.71,0,0,1,68.33,48.48Z"/></g></g></svg>